<mxfile host="app.diagrams.net" modified="2024-01-30T11:19:56.551Z" agent="Mozilla/5.0 (Macintosh; Intel Mac OS X 10_15_7) AppleWebKit/537.36 (KHTML, like Gecko) Chrome/120.0.0.0 Safari/537.36" version="21.7.4" etag="fR67mRDZ68zPST-FagFe" type="github">
  <diagram name="Page-1" id="Wf39RuaLFaBVROwSdY9H">
    <mxGraphModel>
      <root>
        <mxCell id="0" />
        <mxCell id="1" parent="0" />
      </root>
    </mxGraphModel>
  </diagram>
</mxfile>
